<svg xmlns="http://www.w3.org/2000/svg" xmlns:xlink="http://www.w3.org/1999/xlink" width="2000" zoomAndPan="magnify" viewBox="0 0 1500 1499.999933" height="2000" preserveAspectRatio="xMidYMid meet" version="1.0"><defs><g/><clipPath id="60fa6f6b5f"><rect x="0" width="262" y="0" height="374"/></clipPath><clipPath id="1a2c5c90b2"><rect x="0" width="264" y="0" height="510"/></clipPath><clipPath id="55bf68f7db"><rect x="0" width="270" y="0" height="391"/></clipPath><clipPath id="6952c09b67"><rect x="0" width="1173" y="0" height="212"/></clipPath><clipPath id="2afd9ed8fe"><rect x="0" width="260" y="0" height="373"/></clipPath><clipPath id="83fe99937f"><path d="M 381.242188 586.109375 L 473.113281 586.109375 L 473.113281 675.847656 L 381.242188 675.847656 Z M 381.242188 586.109375 " clip-rule="nonzero"/></clipPath><clipPath id="53d32a5c7b"><path d="M 0.242188 0.109375 L 92.113281 0.109375 L 92.113281 89.847656 L 0.242188 89.847656 Z M 0.242188 0.109375 " clip-rule="nonzero"/></clipPath><clipPath id="2a5f87fe89"><rect x="0" width="93" y="0" height="90"/></clipPath><clipPath id="77149ef91c"><path d="M 691.578125 598.820312 L 783.449219 598.820312 L 783.449219 688.558594 L 691.578125 688.558594 Z M 691.578125 598.820312 " clip-rule="nonzero"/></clipPath><clipPath id="09286c2e3f"><path d="M 0.578125 0.820312 L 92.449219 0.820312 L 92.449219 90.558594 L 0.578125 90.558594 Z M 0.578125 0.820312 " clip-rule="nonzero"/></clipPath><clipPath id="242fa83e68"><rect x="0" width="93" y="0" height="91"/></clipPath><clipPath id="e22ddee01f"><path d="M 1028.386719 705.128906 L 1120.257812 705.128906 L 1120.257812 794.871094 L 1028.386719 794.871094 Z M 1028.386719 705.128906 " clip-rule="nonzero"/></clipPath><clipPath id="d4143b80d1"><path d="M 0.386719 0.128906 L 92.257812 0.128906 L 92.257812 89.871094 L 0.386719 89.871094 Z M 0.386719 0.128906 " clip-rule="nonzero"/></clipPath><clipPath id="4425abc856"><rect x="0" width="93" y="0" height="90"/></clipPath></defs><rect x="-150" width="1800" fill="#ffffff" y="-149.999993" height="1799.99992" fill-opacity="1"/><rect x="-150" width="1800" fill="#f7f3ef" y="-149.999993" height="1799.99992" fill-opacity="1"/><g transform="matrix(1, 0, 0, 1, 134, 546)"><g clip-path="url(#60fa6f6b5f)"><g fill="#494949" fill-opacity="1"><g transform="translate(0.79761, 295.174041)"><g><path d="M 188.921875 -283.953125 L 245.171875 -283.953125 C 245.171875 -188.265625 245.171875 -127.363281 245.171875 -101.25 L 245.171875 -100.859375 C 243.617188 -70.335938 231.71875 -44.410156 209.46875 -23.078125 C 187.226562 -1.742188 160.847656 8.984375 130.328125 9.109375 C 99.816406 9.242188 73.441406 -1.03125 51.203125 -21.71875 C 26.378906 -45 13.96875 -73.316406 13.96875 -106.671875 L 13.96875 -283.953125 L 69.828125 -283.953125 L 69.828125 -131.890625 C 70.085938 -122.578125 70.085938 -114.109375 69.828125 -106.484375 C 69.566406 -98.859375 71.117188 -91.097656 74.484375 -83.203125 C 77.847656 -75.316406 83.28125 -68.140625 90.78125 -61.671875 C 101.894531 -51.585938 115.082031 -46.675781 130.34375 -46.9375 C 145.601562 -47.195312 158.921875 -52.628906 170.296875 -63.234375 C 181.671875 -73.835938 187.878906 -86.765625 188.921875 -102.015625 Z M 188.921875 -283.953125 "/></g></g></g></g></g><g transform="matrix(1, 0, 0, 1, 447, 427)"><g clip-path="url(#1a2c5c90b2)"><g fill="#494949" fill-opacity="1"><g transform="translate(1.205461, 424.098703)"><g><path d="M 188.8125 0 C 185.976562 0 183.992188 -1.269531 182.859375 -3.8125 L 129.828125 -121.34375 C 129.265625 -122.476562 128.414062 -123.046875 127.28125 -123.046875 L 87.828125 -123.046875 C 86.410156 -123.046875 85.703125 -122.335938 85.703125 -120.921875 L 85.703125 -5.09375 C 85.703125 -3.675781 85.207031 -2.472656 84.21875 -1.484375 C 83.226562 -0.492188 82.023438 0 80.609375 0 L 30.96875 0 C 29.550781 0 28.347656 -0.492188 27.359375 -1.484375 C 26.367188 -2.472656 25.875 -3.675781 25.875 -5.09375 L 25.875 -291.90625 C 25.875 -293.320312 26.367188 -294.523438 27.359375 -295.515625 C 28.347656 -296.503906 29.550781 -297 30.96875 -297 L 152.3125 -297 C 170.414062 -297 186.328125 -293.320312 200.046875 -285.96875 C 213.765625 -278.613281 224.367188 -268.144531 231.859375 -254.5625 C 239.359375 -240.988281 243.109375 -225.289062 243.109375 -207.46875 C 243.109375 -188.238281 238.300781 -171.765625 228.6875 -158.046875 C 219.070312 -144.328125 205.632812 -134.640625 188.375 -128.984375 C 186.96875 -128.421875 186.546875 -127.429688 187.109375 -126.015625 L 244.8125 -5.9375 C 245.375 -4.8125 245.65625 -3.960938 245.65625 -3.390625 C 245.65625 -1.128906 244.097656 0 240.984375 0 Z M 87.828125 -245.65625 C 86.410156 -245.65625 85.703125 -244.945312 85.703125 -243.53125 L 85.703125 -170.984375 C 85.703125 -169.566406 86.410156 -168.859375 87.828125 -168.859375 L 143.40625 -168.859375 C 155.289062 -168.859375 164.976562 -172.394531 172.46875 -179.46875 C 179.96875 -186.539062 183.71875 -195.734375 183.71875 -207.046875 C 183.71875 -218.359375 179.96875 -227.617188 172.46875 -234.828125 C 164.976562 -242.046875 155.289062 -245.65625 143.40625 -245.65625 Z M 87.828125 -245.65625 "/></g></g></g></g></g><g transform="matrix(1, 0, 0, 1, 766, 538)"><g clip-path="url(#55bf68f7db)"><g fill="#494949" fill-opacity="1"><g transform="translate(0.992465, 308.780508)"><g><path d="M 172.984375 0.40625 C 165.953125 0.40625 114.382812 0.40625 18.28125 0.40625 L 18.28125 -296.03125 L 163.25 -296.03125 C 185.175781 -296.03125 204.125 -288.179688 220.09375 -272.484375 C 229.570312 -262.734375 236.269531 -251.628906 240.1875 -239.171875 C 244.113281 -226.722656 244.925781 -214.335938 242.625 -202.015625 C 240.332031 -189.703125 235.53125 -178.535156 228.21875 -168.515625 C 236.601562 -160.941406 243.503906 -152.144531 248.921875 -142.125 C 255.148438 -130.488281 258.941406 -118.035156 260.296875 -104.765625 C 261.648438 -91.503906 259.957031 -78.035156 255.21875 -64.359375 C 250.476562 -50.691406 242.695312 -38.578125 231.875 -28.015625 C 215.351562 -11.234375 195.722656 -1.894531 172.984375 0 Z M 165.6875 -193.703125 C 173.800781 -194.515625 179.550781 -198.300781 182.9375 -205.0625 C 186.320312 -211.832031 186.457031 -218.671875 183.34375 -225.578125 C 180.226562 -232.484375 174.609375 -236.476562 166.484375 -237.5625 L 77.15625 -237.5625 L 77.15625 -193.703125 Z M 162.4375 -58.46875 C 172.445312 -58.46875 180.835938 -61.109375 187.609375 -66.390625 C 194.378906 -71.671875 198.578125 -78.03125 200.203125 -85.46875 C 201.828125 -92.914062 201.828125 -100.429688 200.203125 -108.015625 C 198.578125 -115.597656 194.445312 -121.957031 187.8125 -127.09375 C 181.175781 -132.238281 172.988281 -134.8125 163.25 -134.8125 L 77.15625 -134.8125 L 77.15625 -58.46875 Z M 162.4375 -58.46875 "/></g></g></g></g></g><g transform="matrix(1, 0, 0, 1, 180, 883)"><g clip-path="url(#6952c09b67)"><g fill="#494949" fill-opacity="1"><g transform="translate(1.422347, 174.636485)"><g><path d="M 89.59375 0 C 88.53125 0 87.828125 -0.46875 87.484375 -1.40625 L 80.4375 -23.59375 C 80.320312 -23.9375 80.085938 -24.109375 79.734375 -24.109375 L 27.109375 -24.109375 C 26.753906 -24.109375 26.519531 -23.9375 26.40625 -23.59375 L 19.359375 -1.40625 C 19.003906 -0.46875 18.300781 0 17.25 0 L 7.75 0 C 6.457031 0 5.988281 -0.644531 6.34375 -1.9375 L 45.234375 -121.796875 C 45.585938 -122.734375 46.289062 -123.203125 47.34375 -123.203125 L 59.3125 -123.203125 C 60.375 -123.203125 61.078125 -122.734375 61.421875 -121.796875 L 100.5 -1.9375 L 100.6875 -1.234375 C 100.6875 -0.410156 100.15625 0 99.09375 0 Z M 29.921875 -35.203125 C 29.804688 -34.960938 29.835938 -34.753906 30.015625 -34.578125 C 30.191406 -34.410156 30.394531 -34.328125 30.625 -34.328125 L 76.03125 -34.328125 C 76.269531 -34.328125 76.476562 -34.410156 76.65625 -34.578125 C 76.832031 -34.753906 76.863281 -34.960938 76.75 -35.203125 L 53.859375 -107.015625 C 53.742188 -107.253906 53.566406 -107.375 53.328125 -107.375 C 53.097656 -107.375 52.921875 -107.253906 52.796875 -107.015625 Z M 29.921875 -35.203125 "/></g></g></g><g fill="#494949" fill-opacity="1"><g transform="translate(129.909473, 174.636485)"><g><path d="M 90.828125 -123.203125 C 91.992188 -123.203125 92.578125 -122.617188 92.578125 -121.453125 L 92.578125 -113.875 C 92.578125 -112.707031 91.992188 -112.125 90.828125 -112.125 L 56.328125 -112.125 C 55.859375 -112.125 55.625 -111.890625 55.625 -111.421875 L 55.625 -1.765625 C 55.625 -0.585938 55.035156 0 53.859375 0 L 44.890625 0 C 43.710938 0 43.125 -0.585938 43.125 -1.765625 L 43.125 -111.421875 C 43.125 -111.890625 42.890625 -112.125 42.421875 -112.125 L 9.328125 -112.125 C 8.148438 -112.125 7.5625 -112.707031 7.5625 -113.875 L 7.5625 -121.453125 C 7.5625 -122.617188 8.148438 -123.203125 9.328125 -123.203125 Z M 90.828125 -123.203125 "/></g></g></g><g fill="#494949" fill-opacity="1"><g transform="translate(263.148885, 174.636485)"><g><path d="M 86.59375 -121.453125 C 86.59375 -122.617188 87.179688 -123.203125 88.359375 -123.203125 L 97.34375 -123.203125 C 98.507812 -123.203125 99.09375 -122.617188 99.09375 -121.453125 L 99.09375 -1.765625 C 99.09375 -0.585938 98.507812 0 97.34375 0 L 88.359375 0 C 87.179688 0 86.59375 -0.585938 86.59375 -1.765625 L 86.59375 -55.796875 C 86.59375 -56.265625 86.359375 -56.5 85.890625 -56.5 L 29.75 -56.5 C 29.28125 -56.5 29.046875 -56.265625 29.046875 -55.796875 L 29.046875 -1.765625 C 29.046875 -0.585938 28.457031 0 27.28125 0 L 18.3125 0 C 17.132812 0 16.546875 -0.585938 16.546875 -1.765625 L 16.546875 -121.453125 C 16.546875 -122.617188 17.132812 -123.203125 18.3125 -123.203125 L 27.28125 -123.203125 C 28.457031 -123.203125 29.046875 -122.617188 29.046875 -121.453125 L 29.046875 -68.125 C 29.046875 -67.644531 29.28125 -67.40625 29.75 -67.40625 L 85.890625 -67.40625 C 86.359375 -67.40625 86.59375 -67.644531 86.59375 -68.125 Z M 86.59375 -121.453125 "/></g></g></g><g fill="#494949" fill-opacity="1"><g transform="translate(411.349114, 174.636485)"><g><path d="M 18.3125 0 C 17.132812 0 16.546875 -0.585938 16.546875 -1.765625 L 16.546875 -121.453125 C 16.546875 -122.617188 17.132812 -123.203125 18.3125 -123.203125 L 27.28125 -123.203125 C 28.457031 -123.203125 29.046875 -122.617188 29.046875 -121.453125 L 29.046875 -11.609375 C 29.046875 -11.140625 29.28125 -10.90625 29.75 -10.90625 L 91.875 -10.90625 C 93.050781 -10.90625 93.640625 -10.320312 93.640625 -9.15625 L 93.640625 -1.765625 C 93.640625 -0.585938 93.050781 0 91.875 0 Z M 18.3125 0 "/></g></g></g><g fill="#494949" fill-opacity="1"><g transform="translate(544.412529, 174.636485)"><g><path d="M 96.28125 -114.0625 C 96.28125 -112.882812 95.691406 -112.296875 94.515625 -112.296875 L 29.75 -112.296875 C 29.28125 -112.296875 29.046875 -112.0625 29.046875 -111.59375 L 29.046875 -68.125 C 29.046875 -67.644531 29.28125 -67.40625 29.75 -67.40625 L 75.15625 -67.40625 C 76.332031 -67.40625 76.921875 -66.820312 76.921875 -65.65625 L 76.921875 -58.265625 C 76.921875 -57.085938 76.332031 -56.5 75.15625 -56.5 L 29.75 -56.5 C 29.28125 -56.5 29.046875 -56.265625 29.046875 -55.796875 L 29.046875 -11.609375 C 29.046875 -11.140625 29.28125 -10.90625 29.75 -10.90625 L 94.515625 -10.90625 C 95.691406 -10.90625 96.28125 -10.320312 96.28125 -9.15625 L 96.28125 -1.765625 C 96.28125 -0.585938 95.691406 0 94.515625 0 L 18.3125 0 C 17.132812 0 16.546875 -0.585938 16.546875 -1.765625 L 16.546875 -121.453125 C 16.546875 -122.617188 17.132812 -123.203125 18.3125 -123.203125 L 94.515625 -123.203125 C 95.691406 -123.203125 96.28125 -122.617188 96.28125 -121.453125 Z M 96.28125 -114.0625 "/></g></g></g><g fill="#494949" fill-opacity="1"><g transform="translate(683.988229, 174.636485)"><g><path d="M 90.828125 -123.203125 C 91.992188 -123.203125 92.578125 -122.617188 92.578125 -121.453125 L 92.578125 -113.875 C 92.578125 -112.707031 91.992188 -112.125 90.828125 -112.125 L 56.328125 -112.125 C 55.859375 -112.125 55.625 -111.890625 55.625 -111.421875 L 55.625 -1.765625 C 55.625 -0.585938 55.035156 0 53.859375 0 L 44.890625 0 C 43.710938 0 43.125 -0.585938 43.125 -1.765625 L 43.125 -111.421875 C 43.125 -111.890625 42.890625 -112.125 42.421875 -112.125 L 9.328125 -112.125 C 8.148438 -112.125 7.5625 -112.707031 7.5625 -113.875 L 7.5625 -121.453125 C 7.5625 -122.617188 8.148438 -123.203125 9.328125 -123.203125 Z M 90.828125 -123.203125 "/></g></g></g><g fill="#494949" fill-opacity="1"><g transform="translate(817.227696, 174.636485)"><g><path d="M 18.3125 0 C 17.132812 0 16.546875 -0.585938 16.546875 -1.765625 L 16.546875 -121.453125 C 16.546875 -122.617188 17.132812 -123.203125 18.3125 -123.203125 L 27.28125 -123.203125 C 28.457031 -123.203125 29.046875 -122.617188 29.046875 -121.453125 L 29.046875 -1.765625 C 29.046875 -0.585938 28.457031 0 27.28125 0 Z M 18.3125 0 "/></g></g></g><g fill="#494949" fill-opacity="1"><g transform="translate(895.90403, 174.636485)"><g><path d="M 54.03125 1.578125 C 45.820312 1.578125 38.609375 -0.03125 32.390625 -3.25 C 26.171875 -6.476562 21.328125 -11.054688 17.859375 -16.984375 C 14.398438 -22.910156 12.671875 -29.742188 12.671875 -37.484375 L 12.671875 -85.890625 C 12.671875 -93.523438 14.398438 -100.273438 17.859375 -106.140625 C 21.328125 -112.003906 26.171875 -116.550781 32.390625 -119.78125 C 38.609375 -123.007812 45.820312 -124.625 54.03125 -124.625 C 62.25 -124.625 69.46875 -123.035156 75.6875 -119.859375 C 81.90625 -116.691406 86.742188 -112.234375 90.203125 -106.484375 C 93.671875 -100.734375 95.40625 -94.101562 95.40625 -86.59375 C 95.40625 -86.007812 95.226562 -85.539062 94.875 -85.1875 C 94.519531 -84.832031 94.109375 -84.65625 93.640625 -84.65625 L 84.65625 -84.140625 C 83.488281 -84.140625 82.90625 -84.664062 82.90625 -85.71875 L 82.90625 -86.25 C 82.90625 -94.582031 80.265625 -101.238281 74.984375 -106.21875 C 69.703125 -111.207031 62.71875 -113.703125 54.03125 -113.703125 C 45.351562 -113.703125 38.375 -111.175781 33.09375 -106.125 C 27.8125 -101.082031 25.171875 -94.457031 25.171875 -86.25 L 25.171875 -36.96875 C 25.171875 -28.75 27.8125 -22.113281 33.09375 -17.0625 C 38.375 -12.019531 45.351562 -9.5 54.03125 -9.5 C 62.71875 -9.5 69.703125 -11.992188 74.984375 -16.984375 C 80.265625 -21.972656 82.90625 -28.632812 82.90625 -36.96875 L 82.90625 -37.3125 C 82.90625 -38.375 83.488281 -38.90625 84.65625 -38.90625 L 93.640625 -38.375 C 94.816406 -38.375 95.40625 -37.84375 95.40625 -36.78125 C 95.40625 -29.15625 93.671875 -22.4375 90.203125 -16.625 C 86.742188 -10.820312 81.90625 -6.335938 75.6875 -3.171875 C 69.46875 -0.00390625 62.25 1.578125 54.03125 1.578125 Z M 54.03125 1.578125 "/></g></g></g><g fill="#494949" fill-opacity="1"><g transform="translate(1035.831836, 174.636485)"><g><path d="M 52.09375 1.40625 C 38.832031 1.40625 28.359375 -1.582031 20.671875 -7.5625 C 12.992188 -13.550781 9.15625 -21.53125 9.15625 -31.5 L 9.15625 -36.96875 C 9.15625 -38.132812 9.738281 -38.71875 10.90625 -38.71875 L 19.53125 -38.71875 C 20.707031 -38.71875 21.296875 -38.132812 21.296875 -36.96875 L 21.296875 -32.203125 C 21.296875 -25.398438 24.113281 -19.914062 29.75 -15.75 C 35.382812 -11.582031 43.1875 -9.5 53.15625 -9.5 C 62.1875 -9.5 69.050781 -11.40625 73.75 -15.21875 C 78.445312 -19.039062 80.796875 -24.117188 80.796875 -30.453125 C 80.796875 -34.554688 79.707031 -38.070312 77.53125 -41 C 75.363281 -43.9375 72.019531 -46.695312 67.5 -49.28125 C 62.976562 -51.863281 56.613281 -54.859375 48.40625 -58.265625 C 39.601562 -61.785156 32.765625 -64.863281 27.890625 -67.5 C 23.023438 -70.144531 19.09375 -73.546875 16.09375 -77.703125 C 13.101562 -81.867188 11.609375 -87.125 11.609375 -93.46875 C 11.609375 -103.320312 15.039062 -110.976562 21.90625 -116.4375 C 28.769531 -121.894531 38.191406 -124.625 50.171875 -124.625 C 63.191406 -124.625 73.457031 -121.570312 80.96875 -115.46875 C 88.476562 -109.363281 92.234375 -101.265625 92.234375 -91.171875 L 92.234375 -87.296875 C 92.234375 -86.128906 91.644531 -85.546875 90.46875 -85.546875 L 81.671875 -85.546875 C 80.492188 -85.546875 79.90625 -86.128906 79.90625 -87.296875 L 79.90625 -90.46875 C 79.90625 -97.28125 77.234375 -102.851562 71.890625 -107.1875 C 66.554688 -111.53125 59.140625 -113.703125 49.640625 -113.703125 C 41.304688 -113.703125 34.910156 -112 30.453125 -108.59375 C 25.992188 -105.195312 23.765625 -100.269531 23.765625 -93.8125 C 23.765625 -89.59375 24.847656 -86.101562 27.015625 -83.34375 C 29.191406 -80.582031 32.300781 -78.175781 36.34375 -76.125 C 40.394531 -74.070312 46.644531 -71.40625 55.09375 -68.125 C 63.65625 -64.601562 70.546875 -61.316406 75.765625 -58.265625 C 80.992188 -55.210938 85.21875 -51.484375 88.4375 -47.078125 C 91.664062 -42.679688 93.28125 -37.316406 93.28125 -30.984375 C 93.28125 -21.117188 89.644531 -13.253906 82.375 -7.390625 C 75.101562 -1.523438 65.007812 1.40625 52.09375 1.40625 Z M 52.09375 1.40625 "/></g></g></g></g></g><g transform="matrix(1, 0, 0, 1, 1107, 553)"><g clip-path="url(#2afd9ed8fe)"><g fill="#494949" fill-opacity="1"><g transform="translate(0.509411, 294.308279)"><g><path d="M 69.828125 0 L 13.96875 0 C 13.96875 -95.164062 14.097656 -155.421875 14.359375 -180.765625 L 14.359375 -181.15625 C 15.910156 -211.414062 27.675781 -237.148438 49.65625 -258.359375 C 71.632812 -279.566406 97.753906 -290.234375 128.015625 -290.359375 C 158.273438 -290.484375 184.265625 -280.203125 205.984375 -259.515625 C 230.816406 -236.503906 243.234375 -208.578125 243.234375 -175.734375 L 243.234375 0 L 187.75 0 L 187.75 -150.515625 C 187.75 -159.828125 187.8125 -168.234375 187.9375 -175.734375 C 188.070312 -183.234375 186.519531 -190.859375 183.28125 -198.609375 C 180.050781 -206.367188 174.6875 -213.613281 167.1875 -220.34375 C 156.070312 -230.164062 142.945312 -234.945312 127.8125 -234.6875 C 112.6875 -234.4375 99.566406 -229.132812 88.453125 -218.78125 C 77.066406 -208.1875 70.859375 -195.390625 69.828125 -180.390625 Z M 69.828125 0 "/></g></g></g></g></g><g clip-path="url(#83fe99937f)"><g transform="matrix(1, 0, 0, 1, 381, 586)"><g clip-path="url(#2a5f87fe89)"><g clip-path="url(#53d32a5c7b)"><path fill="#ff4500" d="M 0.242188 0.109375 L 92.085938 0.109375 L 92.085938 89.847656 L 0.242188 89.847656 Z M 0.242188 0.109375 " fill-opacity="1" fill-rule="nonzero"/></g></g></g></g><g clip-path="url(#77149ef91c)"><g transform="matrix(1, 0, 0, 1, 691, 598)"><g clip-path="url(#242fa83e68)"><g clip-path="url(#09286c2e3f)"><path fill="#ff4500" d="M 0.578125 0.820312 L 92.417969 0.820312 L 92.417969 90.558594 L 0.578125 90.558594 Z M 0.578125 0.820312 " fill-opacity="1" fill-rule="nonzero"/></g></g></g></g><g clip-path="url(#e22ddee01f)"><g transform="matrix(1, 0, 0, 1, 1028, 705)"><g clip-path="url(#4425abc856)"><g clip-path="url(#d4143b80d1)"><path fill="#ff4500" d="M 0.386719 0.128906 L 92.226562 0.128906 L 92.226562 89.871094 L 0.386719 89.871094 Z M 0.386719 0.128906 " fill-opacity="1" fill-rule="nonzero"/></g></g></g></g></svg>